<?xml version="1.0" encoding="UTF-8" standalone="no"?>
<!-- Created with Inkscape (http://www.inkscape.org/) -->

<svg
   id="svg5"
   version="1.1"
   viewBox="0 0 27.312012 27.202927"
   height="27.202927mm"
   width="27.312012mm"
   xmlns:xlink="http://www.w3.org/1999/xlink"
   xmlns="http://www.w3.org/2000/svg"
   xmlns:svg="http://www.w3.org/2000/svg">
  <defs
     id="defs2">
    <linearGradient
       id="linearGradient33866">
      <stop
         style="stop-color:#000000;stop-opacity:1;"
         offset="0"
         id="stop33864" />
    </linearGradient>
    <linearGradient
       id="linearGradient33838">
      <stop
         style="stop-color:#ffffff;stop-opacity:1;"
         offset="0"
         id="stop33834" />
      <stop
         style="stop-color:#ffffff;stop-opacity:0;"
         offset="1"
         id="stop33836" />
    </linearGradient>
    <linearGradient
       xlink:href="#linearGradient33838"
       id="linearGradient33840"
       x1="15.140834"
       y1="15.978981"
       x2="18.929655"
       y2="15.978981"
       gradientUnits="userSpaceOnUse" />
    <linearGradient
       xlink:href="#linearGradient33838"
       id="linearGradient33842"
       x1="22.79619"
       y1="22.539421"
       x2="29.208286"
       y2="22.539421"
       gradientUnits="userSpaceOnUse" />
    <linearGradient
       xlink:href="#linearGradient33838"
       id="linearGradient33844"
       x1="33.53915"
       y1="30.792835"
       x2="38.121719"
       y2="30.792835"
       gradientUnits="userSpaceOnUse" />
    <linearGradient
       xlink:href="#linearGradient33866"
       id="linearGradient33868"
       x1="15.140834"
       y1="15.978981"
       x2="18.929655"
       y2="15.978981"
       gradientUnits="userSpaceOnUse" />
    <linearGradient
       xlink:href="#linearGradient33866"
       id="linearGradient33870"
       x1="22.79619"
       y1="22.539421"
       x2="29.208286"
       y2="22.539421"
       gradientUnits="userSpaceOnUse" />
    <linearGradient
       xlink:href="#linearGradient33866"
       id="linearGradient33872"
       x1="33.53915"
       y1="30.792835"
       x2="38.121719"
       y2="30.792835"
       gradientUnits="userSpaceOnUse" />
  </defs>
  <g
     id="layer1"
     transform="translate(-12.255898,-9.8444306)">
    <path
       id="rect852"
       style="fill:#000000;fill-opacity:1;fill-rule:evenodd;stroke:none;stroke-width:4.43799;stroke-linecap:square;stroke-linejoin:round;stroke-dasharray:13.314, 13.314;stroke-dashoffset:7.98841;stroke-opacity:0.850202;paint-order:stroke markers fill"
       d="M 36.392909,9.8444306 H 15.430898 a 3.175,3.175 135 0 0 -3.175,3.1750004 v 20.852926 a 3.175,3.175 45 0 0 3.175,3.175 h 20.962011 a 3.175,3.175 135 0 0 3.175,-3.175 V 13.019431 a 3.175,3.175 45 0 0 -3.175,-3.1750004 z" />
    <text
       xml:space="preserve"
       style="font-size:10.5833px;line-height:1.25;font-family:'Imbue 24pt';-inkscape-font-specification:'Imbue 24pt';white-space:pre;inline-size:0;stroke-width:0.264583"
       x="19.022217"
       y="2.7648571"
       id="text8047"><tspan
         id="tspan8045"
         style="stroke-width:0.264583"
         x="19.022217"
         y="2.7648571" /></text>
    <g
       aria-label="A"
       id="text20041"
       style="font-size:10.5833px;line-height:1.25;font-family:'Imbue 24pt';-inkscape-font-specification:'Imbue 24pt';fill:#ffffff;stroke-width:0.264583">
      <path
         d="m 15.583212,19.796375 v -0.349249 h 0.433915 l 1.02658,-7.064352 h 0.656164 l 1.18533,7.064352 h 0.486832 v 0.349249 h -2.27541 v -0.349249 h 0.418041 l -0.57679,-4.206861 h 0.01587 l -0.566207,4.206861 h 0.370416 v 0.349249 z m 0.809622,-1.407579 v -0.328082 h 1.142996 v 0.328082 z"
         id="path38090" />
    </g>
    <g
       aria-label="R"
       id="text20041-1"
       style="font-size:10.5833px;line-height:1.25;font-family:'Imbue 24pt';-inkscape-font-specification:'Imbue 24pt';fill:#ffffff;stroke-width:0.264583">
      <path
         d="m 35.953217,33.988998 q -0.476249,0 -0.70379,-0.211666 -0.227541,-0.216957 -0.296332,-0.597956 -0.0635,-0.380999 -0.0635,-0.873122 0,-0.291041 0.01058,-0.560915 0.01588,-0.269874 0.01588,-0.460374 0,-0.407457 -0.05821,-0.624414 -0.05821,-0.22225 -0.201082,-0.306916 -0.142875,-0.08996 -0.407457,-0.08996 h -0.227541 v 3.286114 h 0.529165 v 0.349249 h -2.33891 v -0.349249 h 0.555624 v -6.70981 H 32.21202 V 26.49073 h 2.370659 q 0.460374,0 0.836081,0.179917 0.375707,0.174624 0.597957,0.555623 0.222249,0.375707 0.222249,0.984247 0,0.460373 -0.137583,0.799039 -0.137583,0.338665 -0.365124,0.566206 -0.222249,0.22225 -0.486832,0.343958 -0.25929,0.121708 -0.507998,0.158749 0.587373,0.02646 0.894289,0.211666 0.312207,0.179916 0.428623,0.555623 0.121708,0.370416 0.121708,0.968372 0,0.269874 -0.01587,0.539748 -0.01588,0.264583 -0.01588,0.497416 0,0.153457 0.01058,0.32279 0.01587,0.164041 0.05292,0.275166 0.04233,0.111125 0.116417,0.111125 0.0635,0 0.09525,-0.04763 0.03175,-0.05292 0.03704,-0.121708 h 0.328082 q -0.02646,0.211666 -0.137583,0.343957 -0.111124,0.132291 -0.291041,0.190499 -0.179916,0.0635 -0.412748,0.0635 z m -1.931452,-4.079862 h 0.275165 q 0.22225,0 0.365124,-0.216957 0.142875,-0.22225 0.211666,-0.603248 0.07408,-0.386291 0.07408,-0.857248 0,-0.444498 -0.06879,-0.756706 -0.0635,-0.312207 -0.206374,-0.470956 -0.137583,-0.164042 -0.365124,-0.164042 h -0.285749 z"
         id="path38348" />
    </g>
    <g
       aria-label="S"
       id="text36654"
       style="font-size:22.5778px;line-height:1.25;font-family:'Imbue 24pt';-inkscape-font-specification:'Imbue 24pt';fill:#ffffff;stroke-width:0.264583"
       transform="translate(26.901478,-8.4458127)">
      <path
         d="m -1.0301178,39.717015 q -0.598312,0 -0.970846,-0.135466 -0.372533,-0.135467 -0.6096,-0.31609 -0.237067,-0.191911 -0.395112,-0.327378 -0.146755,-0.146755 -0.316089,-0.146755 -0.293511,0 -0.293511,0.620889 h -0.711201 v -3.860804 h 0.756356 q 0.01129,0.248356 0.124178,0.666045 0.112889,0.41769 0.316089,0.880534 0.203201,0.462845 0.496712,0.880535 0.3048,0.417689 0.699912,0.688623 0.395111,0.270933 0.891823,0.270933 0.462845,0 0.733778,-0.2032 0.282223,-0.2032 0.406401,-0.587023 0.124178,-0.395111 0.124178,-0.959556 0,-0.699912 -0.304801,-1.399824 -0.3048,-0.699912 -0.835378,-1.467557 -0.530578,-0.778934 -1.219201,-1.648179 -0.869246,-1.140179 -1.354668,-2.077158 -0.474134,-0.936979 -0.654757,-1.772357 -0.180622,-0.835379 -0.180622,-1.670758 0,-1.253068 0.417689,-2.088446 0.428978,-0.846668 1.106313,-1.275646 0.677334,-0.428978 1.43369,-0.428978 0.654756,0 1.016001,0.2032 0.361245,0.2032 0.575734,0.4064 0.214489,0.203201 0.4064,0.203201 0.146756,0 0.214489,-0.112889 0.07902,-0.124178 0.09031,-0.451556 h 0.699911 v 3.838226 h -0.745067 q -0.02258,-0.361245 -0.169334,-0.914401 -0.146755,-0.553156 -0.417689,-1.095024 -0.270934,-0.553156 -0.677334,-0.925689 -0.4064,-0.383823 -0.959556,-0.383823 -0.587023,0 -0.914401,0.440267 -0.31609,0.440267 -0.31609,1.253068 0,0.609601 0.259645,1.275646 0.270934,0.666045 0.790223,1.422401 0.530578,0.756357 1.286935,1.659469 0.778934,0.903112 1.286934,1.772357 0.508001,0.869245 0.767646,1.783646 0.259644,0.903112 0.259644,1.919113 0,1.174046 -0.282222,1.964269 -0.270934,0.778934 -0.733779,1.241779 -0.451556,0.462845 -1.004712,0.654756 -0.541867,0.2032 -1.095023,0.2032 z"
         id="path38228" />
    </g>
  </g>
</svg>
